M48
;DRILL file {KiCad 4.0.6} date Fri Apr 21 17:31:21 2017
;FORMAT={-:-/ absolute / inch / decimal}
FMAT,2
INCH,TZ
T1C0.024
T2C0.028
T3C0.030
T4C0.039
%
G90
G05
M72
T1
X6.79Y-4.0075
X6.84Y-3.9575
X6.89Y-4.0075
T2
X6.5345Y-3.9445
X6.6115Y-4.873
X6.6115Y-4.973
X6.6345Y-3.9445
X6.7025Y-3.789
X6.8025Y-3.789
X6.821Y-4.512
X6.921Y-4.512
T3
X5.195Y-3.855
X5.195Y-3.955
X5.195Y-4.055
X5.195Y-4.155
X5.195Y-4.255
X5.195Y-4.355
X5.195Y-4.455
X5.195Y-4.555
X5.195Y-4.655
X5.195Y-4.755
X6.35Y-3.855
X6.35Y-3.955
X6.35Y-4.055
X6.35Y-4.155
X6.35Y-4.255
X6.35Y-4.355
X6.35Y-4.455
X6.35Y-4.555
X6.35Y-4.655
X6.35Y-4.755
T4
X4.48Y-5.416
X4.54Y-4.85
X4.58Y-5.416
X4.64Y-4.85
X4.68Y-5.416
X4.74Y-4.85
X5.22Y-5.46
X5.23Y-5.16
X5.32Y-5.46
X5.33Y-5.16
X5.42Y-5.46
X5.43Y-5.16
X5.52Y-5.46
X5.53Y-5.16
X5.62Y-5.46
X5.63Y-5.16
X5.72Y-5.46
X5.73Y-5.16
X5.796Y-3.6085
X5.7995Y-3.3915
X5.82Y-5.46
X5.83Y-5.16
X5.896Y-3.6085
X5.8995Y-3.3915
X5.92Y-5.46
X5.93Y-5.16
X5.996Y-3.6085
X5.9995Y-3.3915
X6.02Y-5.46
X6.03Y-5.16
X6.12Y-5.46
X6.13Y-5.16
X6.417Y-4.9065
X6.417Y-5.0065
X6.417Y-5.1065
X6.417Y-5.2065
X6.5309Y-4.699
X6.782Y-3.5845
X6.882Y-3.5845
X6.982Y-3.5845
X7.082Y-3.5845
X7.1215Y-4.699
X7.182Y-3.5845
X7.282Y-3.5845
T0
M30
